<svg xmlns="http://www.w3.org/2000/svg" xmlns:xlink="http://www.w3.org/1999/xlink" width="705" viewBox="0 0 705 591" height="591" version="1.0"><defs><g id="t"><path d="M 16.6875 -6.4375 C 16.6875 -5.363281 16.5 -4.378906 16.125 -3.484375 C 15.75 -2.597656 15.226562 -1.90625 14.5625 -1.40625 C 13.90625 -0.90625 13.191406 -0.65625 12.421875 -0.65625 C 11.867188 -0.65625 11.445312 -0.789062 11.15625 -1.0625 C 10.863281 -1.332031 10.71875 -1.707031 10.71875 -2.1875 C 10.71875 -2.40625 10.734375 -2.601562 10.765625 -2.78125 L 10.71875 -2.78125 C 10.425781 -2.15625 9.988281 -1.644531 9.40625 -1.25 C 8.820312 -0.851562 8.222656 -0.65625 7.609375 -0.65625 C 6.679688 -0.65625 5.957031 -0.957031 5.4375 -1.5625 C 4.925781 -2.164062 4.671875 -3.003906 4.671875 -4.078125 C 4.671875 -5.046875 4.863281 -5.953125 5.25 -6.796875 C 5.632812 -7.648438 6.164062 -8.316406 6.84375 -8.796875 C 7.519531 -9.273438 8.28125 -9.515625 9.125 -9.515625 C 10.28125 -9.515625 11.0625 -9 11.46875 -7.96875 L 11.515625 -7.96875 L 11.859375 -9.328125 L 13.25 -9.328125 L 12.21875 -4.828125 C 12 -3.804688 11.890625 -3.09375 11.890625 -2.6875 C 11.890625 -2.394531 11.957031 -2.1875 12.09375 -2.0625 C 12.226562 -1.9375 12.390625 -1.875 12.578125 -1.875 C 13.046875 -1.875 13.492188 -2.078125 13.921875 -2.484375 C 14.359375 -2.898438 14.703125 -3.453125 14.953125 -4.140625 C 15.210938 -4.835938 15.34375 -5.597656 15.34375 -6.421875 C 15.34375 -7.460938 15.113281 -8.378906 14.65625 -9.171875 C 14.207031 -9.972656 13.554688 -10.585938 12.703125 -11.015625 C 11.847656 -11.453125 10.851562 -11.671875 9.71875 -11.671875 C 8.300781 -11.671875 7.050781 -11.359375 5.96875 -10.734375 C 4.882812 -10.109375 4.03125 -9.207031 3.40625 -8.03125 C 2.789062 -6.863281 2.484375 -5.550781 2.484375 -4.09375 C 2.484375 -2.9375 2.71875 -1.921875 3.1875 -1.046875 C 3.65625 -0.179688 4.316406 0.472656 5.171875 0.921875 C 6.023438 1.367188 7.023438 1.59375 8.171875 1.59375 C 9.921875 1.59375 11.664062 1.132812 13.40625 0.21875 L 13.96875 1.3125 C 12.96875 1.875 11.988281 2.273438 11.03125 2.515625 C 10.082031 2.753906 9.109375 2.875 8.109375 2.875 C 6.710938 2.875 5.484375 2.59375 4.421875 2.03125 C 3.359375 1.46875 2.53125 0.648438 1.9375 -0.421875 C 1.34375 -1.492188 1.046875 -2.71875 1.046875 -4.09375 C 1.046875 -5.769531 1.414062 -7.285156 2.15625 -8.640625 C 2.90625 -10.003906 3.941406 -11.054688 5.265625 -11.796875 C 6.585938 -12.546875 8.066406 -12.921875 9.703125 -12.921875 C 11.140625 -12.921875 12.382812 -12.648438 13.4375 -12.109375 C 14.5 -11.578125 15.304688 -10.820312 15.859375 -9.84375 C 16.410156 -8.863281 16.6875 -7.726562 16.6875 -6.4375 Z M 10.9375 -6.40625 C 10.9375 -6.96875 10.757812 -7.425781 10.40625 -7.78125 C 10.0625 -8.132812 9.609375 -8.3125 9.046875 -8.3125 C 8.492188 -8.3125 7.992188 -8.125 7.546875 -7.75 C 7.109375 -7.382812 6.765625 -6.863281 6.515625 -6.1875 C 6.273438 -5.507812 6.15625 -4.8125 6.15625 -4.09375 C 6.15625 -3.414062 6.296875 -2.878906 6.578125 -2.484375 C 6.867188 -2.097656 7.3125 -1.90625 7.90625 -1.90625 C 8.289062 -1.90625 8.664062 -2.03125 9.03125 -2.28125 C 9.40625 -2.53125 9.738281 -2.890625 10.03125 -3.359375 C 10.320312 -3.835938 10.546875 -4.375 10.703125 -4.96875 C 10.859375 -5.570312 10.9375 -6.050781 10.9375 -6.40625 Z M 10.9375 -6.40625"/></g><g id="u"><path d="M 7.0625 -1.890625 C 8.644531 -1.890625 9.742188 -2.679688 10.359375 -4.265625 L 12.640625 -3.40625 C 12.148438 -2.195312 11.429688 -1.296875 10.484375 -0.703125 C 9.535156 -0.117188 8.394531 0.171875 7.0625 0.171875 C 5.050781 0.171875 3.492188 -0.394531 2.390625 -1.53125 C 1.296875 -2.675781 0.75 -4.269531 0.75 -6.3125 C 0.75 -8.375 1.273438 -9.953125 2.328125 -11.046875 C 3.390625 -12.148438 4.929688 -12.703125 6.953125 -12.703125 C 8.421875 -12.703125 9.613281 -12.40625 10.53125 -11.8125 C 11.457031 -11.226562 12.109375 -10.363281 12.484375 -9.21875 L 10.171875 -8.59375 C 9.984375 -9.21875 9.601562 -9.710938 9.03125 -10.078125 C 8.457031 -10.453125 7.78125 -10.640625 7 -10.640625 C 5.8125 -10.640625 4.910156 -10.269531 4.296875 -9.53125 C 3.691406 -8.800781 3.390625 -7.726562 3.390625 -6.3125 C 3.390625 -4.875 3.703125 -3.773438 4.328125 -3.015625 C 4.960938 -2.265625 5.875 -1.890625 7.0625 -1.890625 Z M 7.0625 -1.890625"/></g><g id="v"><path d="M 10.40625 -4.8125 C 10.40625 -3.257812 9.972656 -2.039062 9.109375 -1.15625 C 8.242188 -0.269531 7.046875 0.171875 5.515625 0.171875 C 4.015625 0.171875 2.835938 -0.269531 1.984375 -1.15625 C 1.140625 -2.039062 0.71875 -3.257812 0.71875 -4.8125 C 0.71875 -6.363281 1.140625 -7.582031 1.984375 -8.46875 C 2.835938 -9.351562 4.035156 -9.796875 5.578125 -9.796875 C 7.140625 -9.796875 8.332031 -9.363281 9.15625 -8.5 C 9.988281 -7.644531 10.40625 -6.414062 10.40625 -4.8125 Z M 7.796875 -4.8125 C 7.796875 -5.957031 7.609375 -6.785156 7.234375 -7.296875 C 6.859375 -7.816406 6.316406 -8.078125 5.609375 -8.078125 C 4.085938 -8.078125 3.328125 -6.988281 3.328125 -4.8125 C 3.328125 -3.738281 3.507812 -2.921875 3.875 -2.359375 C 4.25 -1.804688 4.789062 -1.53125 5.5 -1.53125 C 7.03125 -1.53125 7.796875 -2.625 7.796875 -4.8125 Z M 7.796875 -4.8125"/></g><g id="w"><path d="M 10.375 -4.859375 C 10.375 -3.242188 10.050781 -2 9.40625 -1.125 C 8.757812 -0.257812 7.851562 0.171875 6.6875 0.171875 C 6.007812 0.171875 5.421875 0.0234375 4.921875 -0.265625 C 4.421875 -0.554688 4.035156 -0.976562 3.765625 -1.53125 L 3.71875 -1.53125 C 3.75 -1.351562 3.765625 -0.8125 3.765625 0.09375 L 3.765625 3.78125 L 1.265625 3.78125 L 1.265625 -7.40625 C 1.265625 -8.3125 1.242188 -9.046875 1.203125 -9.609375 L 3.625 -9.609375 C 3.65625 -9.503906 3.679688 -9.296875 3.703125 -8.984375 C 3.722656 -8.671875 3.734375 -8.359375 3.734375 -8.046875 L 3.765625 -8.046875 C 4.328125 -9.234375 5.351562 -9.828125 6.84375 -9.828125 C 7.96875 -9.828125 8.835938 -9.394531 9.453125 -8.53125 C 10.066406 -7.664062 10.375 -6.441406 10.375 -4.859375 Z M 7.765625 -4.859375 C 7.765625 -7.015625 7.101562 -8.09375 5.78125 -8.09375 C 5.125 -8.09375 4.617188 -7.800781 4.265625 -7.21875 C 3.910156 -6.632812 3.734375 -5.820312 3.734375 -4.78125 C 3.734375 -3.738281 3.910156 -2.9375 4.265625 -2.375 C 4.617188 -1.8125 5.117188 -1.53125 5.765625 -1.53125 C 7.097656 -1.53125 7.765625 -2.640625 7.765625 -4.859375 Z M 7.765625 -4.859375"/></g><g id="x"><path d="M 2.515625 3.78125 C 1.921875 3.78125 1.394531 3.738281 0.9375 3.65625 L 0.9375 1.890625 C 1.25 1.929688 1.535156 1.953125 1.796875 1.953125 C 2.160156 1.953125 2.457031 1.894531 2.6875 1.78125 C 2.925781 1.675781 3.132812 1.488281 3.3125 1.21875 C 3.5 0.957031 3.710938 0.519531 3.953125 -0.09375 L 0.140625 -9.609375 L 2.78125 -9.609375 L 4.296875 -5.109375 C 4.535156 -4.460938 4.832031 -3.472656 5.1875 -2.140625 L 5.40625 -2.984375 L 5.984375 -5.078125 L 7.40625 -9.609375 L 10.03125 -9.609375 L 6.21875 0.5 C 5.707031 1.738281 5.175781 2.59375 4.625 3.0625 C 4.082031 3.539062 3.378906 3.78125 2.515625 3.78125 Z M 2.515625 3.78125"/></g><g id="y"><path d="M 1.265625 0 L 1.265625 -7.359375 C 1.265625 -7.890625 1.257812 -8.328125 1.25 -8.671875 C 1.238281 -9.023438 1.222656 -9.335938 1.203125 -9.609375 L 3.578125 -9.609375 C 3.597656 -9.503906 3.625 -9.179688 3.65625 -8.640625 C 3.6875 -8.097656 3.703125 -7.738281 3.703125 -7.5625 L 3.734375 -7.5625 C 3.972656 -8.238281 4.1875 -8.710938 4.375 -8.984375 C 4.570312 -9.265625 4.800781 -9.46875 5.0625 -9.59375 C 5.320312 -9.726562 5.644531 -9.796875 6.03125 -9.796875 C 6.351562 -9.796875 6.613281 -9.753906 6.8125 -9.671875 L 6.8125 -7.578125 C 6.40625 -7.671875 6.046875 -7.71875 5.734375 -7.71875 C 5.117188 -7.71875 4.632812 -7.460938 4.28125 -6.953125 C 3.9375 -6.453125 3.765625 -5.707031 3.765625 -4.71875 L 3.765625 0 Z M 1.265625 0"/></g><g id="z"><path d="M 1.265625 -11.34375 L 1.265625 -13.1875 L 3.765625 -13.1875 L 3.765625 -11.34375 Z M 1.265625 0 L 1.265625 -9.609375 L 3.765625 -9.609375 L 3.765625 0 Z M 1.265625 0"/></g><g id="A"><path d="M 5.296875 3.859375 C 4.117188 3.859375 3.171875 3.632812 2.453125 3.1875 C 1.742188 2.738281 1.304688 2.097656 1.140625 1.265625 L 3.640625 0.984375 C 3.734375 1.367188 3.925781 1.671875 4.21875 1.890625 C 4.507812 2.109375 4.894531 2.21875 5.375 2.21875 C 6.0625 2.21875 6.566406 2.003906 6.890625 1.578125 C 7.210938 1.148438 7.375 0.515625 7.375 -0.328125 L 7.375 -0.828125 L 7.390625 -1.78125 L 7.375 -1.78125 C 6.820312 -0.601562 5.789062 -0.015625 4.28125 -0.015625 C 3.15625 -0.015625 2.285156 -0.4375 1.671875 -1.28125 C 1.054688 -2.125 0.75 -3.328125 0.75 -4.890625 C 0.75 -6.460938 1.066406 -7.671875 1.703125 -8.515625 C 2.335938 -9.367188 3.257812 -9.796875 4.46875 -9.796875 C 5.863281 -9.796875 6.832031 -9.222656 7.375 -8.078125 L 7.40625 -8.078125 C 7.40625 -8.273438 7.421875 -8.550781 7.453125 -8.90625 C 7.484375 -9.269531 7.507812 -9.503906 7.53125 -9.609375 L 9.90625 -9.609375 C 9.863281 -8.972656 9.84375 -8.234375 9.84375 -7.390625 L 9.84375 -0.296875 C 9.84375 1.078125 9.453125 2.113281 8.671875 2.8125 C 7.898438 3.507812 6.773438 3.859375 5.296875 3.859375 Z M 7.390625 -4.9375 C 7.390625 -5.925781 7.210938 -6.695312 6.859375 -7.25 C 6.503906 -7.8125 6 -8.09375 5.34375 -8.09375 C 4.007812 -8.09375 3.34375 -7.023438 3.34375 -4.890625 C 3.34375 -2.796875 4.003906 -1.75 5.328125 -1.75 C 5.992188 -1.75 6.503906 -2.023438 6.859375 -2.578125 C 7.210938 -3.128906 7.390625 -3.914062 7.390625 -4.9375 Z M 7.390625 -4.9375"/></g><g id="B"><path d="M 3.734375 -7.703125 C 4.066406 -8.429688 4.488281 -8.960938 5 -9.296875 C 5.507812 -9.628906 6.117188 -9.796875 6.828125 -9.796875 C 7.847656 -9.796875 8.628906 -9.476562 9.171875 -8.84375 C 9.710938 -8.21875 9.984375 -7.300781 9.984375 -6.09375 L 9.984375 0 L 7.5 0 L 7.5 -5.390625 C 7.5 -7.078125 6.925781 -7.921875 5.78125 -7.921875 C 5.175781 -7.921875 4.6875 -7.660156 4.3125 -7.140625 C 3.945312 -6.617188 3.765625 -5.953125 3.765625 -5.140625 L 3.765625 0 L 1.265625 0 L 1.265625 -13.1875 L 3.765625 -13.1875 L 3.765625 -9.59375 C 3.765625 -8.945312 3.742188 -8.316406 3.703125 -7.703125 Z M 3.734375 -7.703125"/></g><g id="C"><path d="M 3.734375 0.15625 C 2.992188 0.15625 2.425781 -0.0390625 2.03125 -0.4375 C 1.632812 -0.84375 1.4375 -1.445312 1.4375 -2.25 L 1.4375 -7.921875 L 0.21875 -7.921875 L 0.21875 -9.609375 L 1.5625 -9.609375 L 2.34375 -11.875 L 3.90625 -11.875 L 3.90625 -9.609375 L 5.734375 -9.609375 L 5.734375 -7.921875 L 3.90625 -7.921875 L 3.90625 -2.9375 C 3.90625 -2.46875 3.992188 -2.117188 4.171875 -1.890625 C 4.347656 -1.671875 4.625 -1.5625 5 -1.5625 C 5.195312 -1.5625 5.476562 -1.601562 5.84375 -1.6875 L 5.84375 -0.140625 C 5.226562 0.0546875 4.523438 0.15625 3.734375 0.15625 Z M 3.734375 0.15625"/></g><g id="E"><path d="M 6.875 -10.5 L 6.875 0 L 4.25 0 L 4.25 -10.5 L 0.203125 -10.5 L 0.203125 -12.53125 L 10.921875 -12.53125 L 10.921875 -10.5 Z M 6.875 -10.5"/></g><g id="F"><path d="M 5.203125 0.171875 C 3.765625 0.171875 2.65625 -0.253906 1.875 -1.109375 C 1.101562 -1.960938 0.71875 -3.210938 0.71875 -4.859375 C 0.71875 -6.441406 1.109375 -7.660156 1.890625 -8.515625 C 2.679688 -9.367188 3.800781 -9.796875 5.25 -9.796875 C 6.625 -9.796875 7.675781 -9.335938 8.40625 -8.421875 C 9.132812 -7.503906 9.5 -6.164062 9.5 -4.40625 L 9.5 -4.328125 L 3.328125 -4.328125 C 3.328125 -3.390625 3.5 -2.679688 3.84375 -2.203125 C 4.195312 -1.734375 4.691406 -1.5 5.328125 -1.5 C 6.210938 -1.5 6.769531 -1.878906 7 -2.640625 L 9.359375 -2.4375 C 8.679688 -0.695312 7.296875 0.171875 5.203125 0.171875 Z M 5.203125 -8.21875 C 4.617188 -8.21875 4.164062 -8.015625 3.84375 -7.609375 C 3.53125 -7.203125 3.363281 -6.628906 3.34375 -5.890625 L 7.078125 -5.890625 C 7.035156 -6.671875 6.847656 -7.253906 6.515625 -7.640625 C 6.191406 -8.023438 5.753906 -8.21875 5.203125 -8.21875 Z M 5.203125 -8.21875"/></g><g id="G"><path d="M 3.5 0.171875 C 2.5625 0.171875 1.832031 -0.078125 1.3125 -0.578125 C 0.789062 -1.085938 0.53125 -1.800781 0.53125 -2.71875 C 0.53125 -3.71875 0.851562 -4.476562 1.5 -5 C 2.15625 -5.519531 3.097656 -5.785156 4.328125 -5.796875 L 6.40625 -5.828125 L 6.40625 -6.3125 C 6.40625 -6.945312 6.289062 -7.414062 6.0625 -7.71875 C 5.84375 -8.019531 5.488281 -8.171875 5 -8.171875 C 4.53125 -8.171875 4.1875 -8.066406 3.96875 -7.859375 C 3.757812 -7.648438 3.628906 -7.300781 3.578125 -6.8125 L 0.96875 -6.9375 C 1.125 -7.875 1.550781 -8.582031 2.25 -9.0625 C 2.945312 -9.550781 3.898438 -9.796875 5.109375 -9.796875 C 6.316406 -9.796875 7.25 -9.492188 7.90625 -8.890625 C 8.5625 -8.296875 8.890625 -7.445312 8.890625 -6.34375 L 8.890625 -2.84375 C 8.890625 -2.300781 8.953125 -1.925781 9.078125 -1.71875 C 9.203125 -1.519531 9.40625 -1.421875 9.6875 -1.421875 C 9.875 -1.421875 10.054688 -1.4375 10.234375 -1.46875 L 10.234375 -0.125 C 10.085938 -0.09375 9.953125 -0.0625 9.828125 -0.03125 C 9.710938 0 9.597656 0.0234375 9.484375 0.046875 C 9.367188 0.0664062 9.242188 0.0820312 9.109375 0.09375 C 8.972656 0.101562 8.816406 0.109375 8.640625 0.109375 C 8.015625 0.109375 7.550781 -0.0390625 7.25 -0.34375 C 6.945312 -0.65625 6.765625 -1.113281 6.703125 -1.71875 L 6.65625 -1.71875 C 5.957031 -0.457031 4.90625 0.171875 3.5 0.171875 Z M 6.40625 -4.453125 L 5.125 -4.4375 C 4.539062 -4.414062 4.125 -4.351562 3.875 -4.25 C 3.632812 -4.144531 3.453125 -3.984375 3.328125 -3.765625 C 3.203125 -3.554688 3.140625 -3.273438 3.140625 -2.921875 C 3.140625 -2.460938 3.242188 -2.117188 3.453125 -1.890625 C 3.660156 -1.671875 3.941406 -1.5625 4.296875 -1.5625 C 4.679688 -1.5625 5.035156 -1.664062 5.359375 -1.875 C 5.679688 -2.09375 5.9375 -2.390625 6.125 -2.765625 C 6.3125 -3.140625 6.40625 -3.539062 6.40625 -3.96875 Z M 6.40625 -4.453125"/></g><g id="H"><path d="M 6.9375 0 L 6.9375 -5.390625 C 6.9375 -7.078125 6.445312 -7.921875 5.46875 -7.921875 C 4.96875 -7.921875 4.554688 -7.660156 4.234375 -7.140625 C 3.921875 -6.628906 3.765625 -5.96875 3.765625 -5.15625 L 3.765625 0 L 1.265625 0 L 1.265625 -7.46875 C 1.265625 -7.976562 1.257812 -8.394531 1.25 -8.71875 C 1.238281 -9.050781 1.222656 -9.347656 1.203125 -9.609375 L 3.578125 -9.609375 C 3.597656 -9.503906 3.625 -9.207031 3.65625 -8.71875 C 3.6875 -8.226562 3.703125 -7.890625 3.703125 -7.703125 L 3.734375 -7.703125 C 4.035156 -8.441406 4.414062 -8.972656 4.875 -9.296875 C 5.34375 -9.628906 5.894531 -9.796875 6.53125 -9.796875 C 8 -9.796875 8.890625 -9.097656 9.203125 -7.703125 L 9.265625 -7.703125 C 9.585938 -8.453125 9.976562 -8.988281 10.4375 -9.3125 C 10.894531 -9.632812 11.472656 -9.796875 12.171875 -9.796875 C 13.109375 -9.796875 13.820312 -9.476562 14.3125 -8.84375 C 14.8125 -8.207031 15.0625 -7.296875 15.0625 -6.109375 L 15.0625 0 L 12.578125 0 L 12.578125 -5.390625 C 12.578125 -7.078125 12.09375 -7.921875 11.125 -7.921875 C 10.632812 -7.921875 10.234375 -7.6875 9.921875 -7.21875 C 9.609375 -6.75 9.4375 -6.097656 9.40625 -5.265625 L 9.40625 0 Z M 6.9375 0"/></g><g id="I"><path d="M 1.140625 0 L 1.140625 -1.859375 L 4.25 -1.859375 L 4.25 -10.40625 L 1.25 -8.53125 L 1.25 -10.484375 L 4.375 -12.53125 L 6.75 -12.53125 L 6.75 -1.859375 L 9.609375 -1.859375 L 9.609375 0 Z M 1.140625 0"/></g><g id="J"><path d="M 9.375 -6.265625 C 9.375 -4.148438 9.007812 -2.546875 8.28125 -1.453125 C 7.5625 -0.367188 6.472656 0.171875 5.015625 0.171875 C 2.148438 0.171875 0.71875 -1.972656 0.71875 -6.265625 C 0.71875 -7.765625 0.875 -8.988281 1.1875 -9.9375 C 1.5 -10.882812 1.96875 -11.582031 2.59375 -12.03125 C 3.226562 -12.476562 4.0625 -12.703125 5.09375 -12.703125 C 6.570312 -12.703125 7.65625 -12.164062 8.34375 -11.09375 C 9.03125 -10.03125 9.375 -8.421875 9.375 -6.265625 Z M 6.875 -6.265625 C 6.875 -7.421875 6.816406 -8.316406 6.703125 -8.953125 C 6.585938 -9.597656 6.40625 -10.054688 6.15625 -10.328125 C 5.90625 -10.609375 5.546875 -10.75 5.078125 -10.75 C 4.566406 -10.75 4.179688 -10.609375 3.921875 -10.328125 C 3.671875 -10.046875 3.488281 -9.585938 3.375 -8.953125 C 3.269531 -8.316406 3.21875 -7.421875 3.21875 -6.265625 C 3.21875 -5.117188 3.273438 -4.222656 3.390625 -3.578125 C 3.503906 -2.941406 3.6875 -2.484375 3.9375 -2.203125 C 4.1875 -1.921875 4.554688 -1.78125 5.046875 -1.78125 C 5.515625 -1.78125 5.878906 -1.925781 6.140625 -2.21875 C 6.398438 -2.519531 6.585938 -2.992188 6.703125 -3.640625 C 6.816406 -4.285156 6.875 -5.160156 6.875 -6.265625 Z M 6.875 -6.265625"/></g><g id="K"><path d="M 7.5 0 L 7.5 -5.390625 C 7.5 -7.078125 6.925781 -7.921875 5.78125 -7.921875 C 5.175781 -7.921875 4.6875 -7.660156 4.3125 -7.140625 C 3.945312 -6.628906 3.765625 -5.96875 3.765625 -5.15625 L 3.765625 0 L 1.265625 0 L 1.265625 -7.46875 C 1.265625 -7.976562 1.257812 -8.394531 1.25 -8.71875 C 1.238281 -9.050781 1.222656 -9.347656 1.203125 -9.609375 L 3.578125 -9.609375 C 3.597656 -9.503906 3.625 -9.207031 3.65625 -8.71875 C 3.6875 -8.226562 3.703125 -7.890625 3.703125 -7.703125 L 3.734375 -7.703125 C 4.066406 -8.441406 4.488281 -8.972656 5 -9.296875 C 5.507812 -9.628906 6.117188 -9.796875 6.828125 -9.796875 C 7.847656 -9.796875 8.628906 -9.484375 9.171875 -8.859375 C 9.710938 -8.234375 9.984375 -7.316406 9.984375 -6.109375 L 9.984375 0 Z M 7.5 0"/></g><g id="L"><path d="M 1.21875 0 L 1.21875 -12.53125 L 11.0625 -12.53125 L 11.0625 -10.5 L 3.84375 -10.5 L 3.84375 -7.34375 L 10.53125 -7.34375 L 10.53125 -5.328125 L 3.84375 -5.328125 L 3.84375 -2.03125 L 11.4375 -2.03125 L 11.4375 0 Z M 1.21875 0"/></g><g id="M"><path d="M 1.265625 0 L 1.265625 -13.1875 L 3.765625 -13.1875 L 3.765625 0 Z M 1.265625 0"/></g><g id="N"><path d="M 10.078125 0 L 8.953125 -3.203125 L 4.1875 -3.203125 L 3.078125 0 L 0.453125 0 L 5.015625 -12.53125 L 8.109375 -12.53125 L 12.671875 0 Z M 6.5625 -10.59375 L 6.515625 -10.40625 C 6.453125 -10.1875 6.378906 -9.941406 6.296875 -9.671875 C 6.210938 -9.398438 5.703125 -7.898438 4.765625 -5.171875 L 8.375 -5.171875 L 7.140625 -8.765625 L 6.75 -9.984375 Z M 6.5625 -10.59375"/></g><g id="O"><path d="M 1.234375 0 L 1.234375 -2.703125 L 3.796875 -2.703125 L 3.796875 0 Z M 1.234375 0"/></g><g id="P"><path d="M 9.828125 0 L 6.921875 -4.75 L 3.84375 -4.75 L 3.84375 0 L 1.21875 0 L 1.21875 -12.53125 L 7.46875 -12.53125 C 8.96875 -12.53125 10.125 -12.207031 10.9375 -11.5625 C 11.75 -10.914062 12.15625 -9.992188 12.15625 -8.796875 C 12.15625 -7.910156 11.90625 -7.148438 11.40625 -6.515625 C 10.90625 -5.878906 10.234375 -5.460938 9.390625 -5.265625 L 12.765625 0 Z M 9.515625 -8.6875 C 9.515625 -9.882812 8.742188 -10.484375 7.203125 -10.484375 L 3.84375 -10.484375 L 3.84375 -6.796875 L 7.265625 -6.796875 C 8.003906 -6.796875 8.5625 -6.957031 8.9375 -7.28125 C 9.320312 -7.613281 9.515625 -8.082031 9.515625 -8.6875 Z M 9.515625 -8.6875"/></g><g id="Q"><path d="M 9.375 -2.8125 C 9.375 -1.875 8.992188 -1.140625 8.234375 -0.609375 C 7.472656 -0.0859375 6.421875 0.171875 5.078125 0.171875 C 3.753906 0.171875 2.738281 -0.0351562 2.03125 -0.453125 C 1.332031 -0.867188 0.867188 -1.519531 0.640625 -2.40625 L 2.828125 -2.734375 C 2.953125 -2.273438 3.164062 -1.945312 3.46875 -1.75 C 3.78125 -1.5625 4.316406 -1.46875 5.078125 -1.46875 C 5.773438 -1.46875 6.28125 -1.554688 6.59375 -1.734375 C 6.914062 -1.921875 7.078125 -2.203125 7.078125 -2.578125 C 7.078125 -2.890625 6.945312 -3.132812 6.6875 -3.3125 C 6.4375 -3.488281 6.003906 -3.640625 5.390625 -3.765625 C 3.972656 -4.046875 3.019531 -4.304688 2.53125 -4.546875 C 2.039062 -4.785156 1.664062 -5.09375 1.40625 -5.46875 C 1.144531 -5.851562 1.015625 -6.328125 1.015625 -6.890625 C 1.015625 -7.804688 1.367188 -8.519531 2.078125 -9.03125 C 2.785156 -9.539062 3.789062 -9.796875 5.09375 -9.796875 C 6.238281 -9.796875 7.15625 -9.570312 7.84375 -9.125 C 8.539062 -8.6875 8.976562 -8.046875 9.15625 -7.203125 L 6.9375 -6.984375 C 6.863281 -7.367188 6.6875 -7.65625 6.40625 -7.84375 C 6.132812 -8.039062 5.695312 -8.140625 5.09375 -8.140625 C 4.5 -8.140625 4.050781 -8.0625 3.75 -7.90625 C 3.457031 -7.757812 3.3125 -7.507812 3.3125 -7.15625 C 3.3125 -6.875 3.425781 -6.648438 3.65625 -6.484375 C 3.882812 -6.328125 4.269531 -6.195312 4.8125 -6.09375 C 5.5625 -5.9375 6.226562 -5.773438 6.8125 -5.609375 C 7.394531 -5.453125 7.863281 -5.257812 8.21875 -5.03125 C 8.570312 -4.800781 8.851562 -4.507812 9.0625 -4.15625 C 9.269531 -3.8125 9.375 -3.363281 9.375 -2.8125 Z M 9.375 -2.8125"/></g><g id="R"><path d="M 6.5 0 L 3.515625 0 L 0.078125 -9.609375 L 2.703125 -9.609375 L 4.390625 -4.234375 C 4.484375 -3.941406 4.691406 -3.203125 5.015625 -2.015625 C 5.078125 -2.253906 5.195312 -2.679688 5.375 -3.296875 C 5.5625 -3.910156 6.25 -6.015625 7.4375 -9.609375 L 10.046875 -9.609375 Z M 6.5 0"/></g><g id="S"><path d="M 7.5 0 C 7.476562 -0.09375 7.453125 -0.316406 7.421875 -0.671875 C 7.390625 -1.023438 7.375 -1.320312 7.375 -1.5625 L 7.328125 -1.5625 C 6.796875 -0.40625 5.769531 0.171875 4.25 0.171875 C 3.132812 0.171875 2.269531 -0.257812 1.65625 -1.125 C 1.050781 -2 0.75 -3.222656 0.75 -4.796875 C 0.75 -6.390625 1.066406 -7.617188 1.703125 -8.484375 C 2.347656 -9.359375 3.257812 -9.796875 4.4375 -9.796875 C 5.125 -9.796875 5.710938 -9.648438 6.203125 -9.359375 C 6.703125 -9.078125 7.082031 -8.65625 7.34375 -8.09375 L 7.375 -8.09375 L 7.34375 -9.671875 L 7.34375 -13.1875 L 9.84375 -13.1875 L 9.84375 -2.09375 C 9.84375 -1.5 9.867188 -0.800781 9.921875 0 Z M 7.390625 -4.859375 C 7.390625 -5.898438 7.210938 -6.695312 6.859375 -7.25 C 6.515625 -7.8125 6.003906 -8.09375 5.328125 -8.09375 C 4.660156 -8.09375 4.160156 -7.820312 3.828125 -7.28125 C 3.503906 -6.738281 3.34375 -5.910156 3.34375 -4.796875 C 3.34375 -2.617188 4 -1.53125 5.3125 -1.53125 C 5.96875 -1.53125 6.476562 -1.816406 6.84375 -2.390625 C 7.207031 -2.972656 7.390625 -3.796875 7.390625 -4.859375 Z M 7.390625 -4.859375"/></g><g id="l"><path d="M 29.882812 0 C 34.539062 0 35.546875 -2.09375 35.78125 -5.199219 L 36.089844 -9.78125 C 36.089844 -10.476562 35.46875 -10.867188 34.847656 -10.867188 L 17.773438 -10.867188 L 18.628906 -22.429688 L 25.378906 -22.429688 C 30.039062 -22.429688 31.046875 -24.527344 31.277344 -27.632812 L 31.589844 -32.210938 C 31.589844 -32.988281 30.96875 -33.296875 30.347656 -33.296875 L 19.328125 -33.296875 L 20.101562 -44.242188 L 30.8125 -44.242188 C 35.46875 -44.242188 36.480469 -46.335938 36.710938 -49.441406 L 37.023438 -54.019531 C 37.023438 -54.796875 36.402344 -55.105469 35.78125 -55.105469 L 8.460938 -55.105469 C 7.605469 -55.105469 7.21875 -54.796875 7.21875 -53.941406 C 7.21875 -48.664062 3.957031 -12.882812 3.957031 -6.597656 C 3.957031 -2.40625 6.285156 0 12.03125 0 Z M 29.882812 0"/></g><g id="m"><path d="M 28.253906 -24.136719 C 33.683594 -24.136719 37.179688 -28.871094 37.179688 -34.460938 C 37.179688 -40.671875 32.753906 -43.464844 28.71875 -43.464844 C 25.378906 -43.464844 20.644531 -41.601562 18.238281 -36.789062 C 17.851562 -39.972656 16.144531 -42.6875 10.246094 -42.6875 L 7.21875 -42.6875 C 6.363281 -42.6875 5.664062 -41.914062 5.589844 -40.4375 C 3.957031 -17.617188 3.261719 -10.554688 3.261719 -7.375 C 3.261719 -2.640625 4.8125 0 11.175781 0 L 13.972656 0 C 14.824219 0 15.679688 -0.542969 15.679688 -1.550781 C 15.679688 -3.335938 16.6875 -14.746094 17.152344 -21.34375 C 17.695312 -28.871094 19.714844 -32.675781 22.585938 -32.675781 C 24.449219 -32.675781 24.914062 -31.046875 24.914062 -28.796875 C 24.914062 -27.554688 24.757812 -26.46875 24.757812 -25.148438 C 24.757812 -24.371094 27.085938 -24.136719 28.253906 -24.136719 Z M 28.253906 -24.136719"/></g><g id="n"><path d="M 20.566406 0.777344 C 40.050781 0.777344 43.773438 -15.523438 43.773438 -25.300781 C 43.773438 -36.789062 38.574219 -43.464844 25.535156 -43.464844 C 7.761719 -43.464844 2.25 -31.125 2.25 -18.628906 C 2.25 -7.839844 6.363281 0.777344 20.566406 0.777344 Z M 24.214844 -33.140625 C 28.796875 -33.140625 30.582031 -29.960938 30.582031 -24.835938 C 30.582031 -20.023438 29.027344 -9.546875 21.730469 -9.546875 C 17.695312 -9.546875 15.445312 -12.652344 15.445312 -19.480469 C 15.445312 -23.90625 16.375 -33.140625 24.214844 -33.140625 Z M 24.214844 -33.140625"/></g><clipPath id="a"><path d="M 0.59375 0 L 704.402344 0 L 704.402344 590 L 0.59375 590 Z M 0.59375 0"/></clipPath><clipPath id="b"><path d="M 0.59375 488 L 175 488 L 175 590 L 0.59375 590 Z M 0.59375 488"/></clipPath><clipPath id="c"><path d="M -110.996094 666.167969 L -42.863281 448.207031 L 195.824219 522.816406 L 127.695312 740.777344 Z M -110.996094 666.167969"/></clipPath><clipPath id="d"><path d="M -42.949219 448.472656 L -111.078125 666.4375 L 127.609375 741.046875 L 195.742188 523.082031 Z M -42.949219 448.472656"/></clipPath><clipPath id="e"><path d="M 504 0 L 704.402344 0 L 704.402344 125 L 504 125 Z M 504 0"/></clipPath><clipPath id="f"><path d="M 790.21875 63.09375 L 621.703125 200.023438 L 471.082031 14.660156 L 639.59375 -122.269531 Z M 790.21875 63.09375"/></clipPath><clipPath id="g"><path d="M 790.21875 63.09375 L 621.703125 200.023438 L 471.082031 14.660156 L 639.59375 -122.269531 Z M 790.21875 63.09375"/></clipPath><clipPath id="h"><path d="M 0.59375 467 L 146 467 L 146 590 L 0.59375 590 Z M 0.59375 467"/></clipPath><clipPath id="i"><path d="M 92.894531 740.871094 L -121.699219 674.511719 L -48.925781 439.171875 L 165.667969 505.53125 Z M 92.894531 740.871094"/></clipPath><clipPath id="j"><path d="M 92.894531 740.871094 L -121.699219 674.511719 L -48.925781 439.171875 L 165.667969 505.53125 Z M 92.894531 740.871094"/></clipPath><clipPath id="k"><path d="M 92.894531 740.871094 L -121.699219 674.511719 L -48.925781 439.171875 L 165.667969 505.53125 Z M 92.894531 740.871094"/></clipPath><clipPath id="p"><path d="M 536 0 L 704.402344 0 L 704.402344 174 L 536 174 Z M 536 0"/></clipPath><clipPath id="q"><path d="M 757.742188 154.597656 L 573.949219 200.460938 L 523.550781 -1.492188 L 707.34375 -47.359375 Z M 757.742188 154.597656"/></clipPath><clipPath id="r"><path d="M 757.742188 154.597656 L 573.949219 200.460938 L 523.550781 -1.492188 L 707.34375 -47.359375 Z M 757.742188 154.597656"/></clipPath><clipPath id="s"><path d="M 757.742188 154.597656 L 573.949219 200.460938 L 523.550781 -1.492188 L 707.34375 -47.359375 Z M 757.742188 154.597656"/></clipPath></defs><g clip-path="url(#a)" fill="#FFF"><path d="M 0.59375 0 L 704.40625 0 L 704.40625 597.488281 L 0.59375 597.488281 Z M 0.59375 0"/><path d="M 0.59375 0 L 704.40625 0 L 704.40625 590 L 0.59375 590 Z M 0.59375 0"/><path d="M 0.59375 0 L 704.40625 0 L 704.40625 590 L 0.59375 590 Z M 0.59375 0"/></g><g clip-path="url(#b)"><g clip-path="url(#c)"><g clip-path="url(#d)"><path fill="#DB3269" d="M 142.074219 669.097656 C 142.074219 669.097656 80.292969 758.40625 47.972656 706.484375 C 15.65625 654.558594 30.828125 624.164062 -22.410156 603 C -75.644531 581.835938 -88.503906 529.117188 -44.636719 504.351562 C -0.769531 479.589844 265.6875 454.222656 142.074219 669.097656 Z M 142.074219 669.097656"/></g></g></g><g clip-path="url(#e)"><g clip-path="url(#f)"><g clip-path="url(#g)"><path fill="#5E48E8" d="M 529.554688 -23.425781 C 529.554688 -23.425781 472.519531 62.695312 529.886719 73.109375 C 587.25 83.519531 608.734375 59.398438 646.332031 99.152344 C 683.925781 138.910156 735.089844 131.792969 741.417969 84.214844 C 747.75 36.636719 675.652344 -208.449219 529.554688 -23.425781 Z M 529.554688 -23.425781"/></g></g></g><g clip-path="url(#h)"><g clip-path="url(#i)"><g clip-path="url(#j)"><g clip-path="url(#k)"><path fill="#FBB03B" d="M 77.339844 478.21875 C 90.050781 482.148438 101 487.015625 110.191406 492.816406 C 129.066406 504.753906 140.527344 520.703125 144.230469 540.25 C 147.195312 555.816406 145.234375 573.664062 138.421875 593.210938 C 132.589844 609.945312 123.40625 627.515625 111.121094 645.441406 C 88.234375 678.8125 60.90625 704.144531 46.820312 711.03125 C 28.5 719.988281 10.1875 718.941406 -3.445312 708.15625 C -21.105469 694.175781 -27.894531 667.152344 -21.160156 637.648438 C -13.207031 602.742188 -23.890625 588.191406 -38.71875 568.058594 C -47.230469 556.488281 -56.871094 543.378906 -65.488281 523.617188 C -70.429688 512.285156 -70.21875 502.378906 -64.859375 494.179688 C -57.683594 483.199219 -41.636719 475.386719 -17.164062 470.957031 C -5.726562 468.933594 5.796875 467.8125 17.410156 467.582031 L 17.457031 467.597656 C 40.402344 469.417969 60.417969 472.984375 77.339844 478.21875 Z M 10.1875 714.160156 C 21.160156 717.550781 33.734375 716.21875 46.328125 710.0625 C 60.296875 703.230469 87.429688 678.046875 110.214844 644.820312 C 125.664062 622.304688 150.464844 578.8125 143.171875 540.4375 C 139.515625 521.214844 128.222656 505.5 109.613281 493.722656 C 88.390625 480.308594 57.375 471.890625 17.441406 468.625 C 15.957031 468.632812 -47.289062 469.269531 -63.945312 494.71875 C -69.089844 502.59375 -69.273438 512.152344 -64.488281 523.125 C -55.917969 542.777344 -46.3125 555.84375 -37.820312 567.371094 C -22.824219 587.753906 -12 602.480469 -20.074219 637.859375 C -26.726562 666.972656 -20.089844 693.582031 -2.757812 707.316406 C 1.128906 710.410156 5.441406 712.6875 10.1875 714.160156 Z M 10.1875 714.160156"/></g></g></g></g><g fill="#5E48E8"><use x="59.596" y="136.572" xmlns:xlink="http://www.w3.org/1999/xlink" xlink:href="#l" xlink:type="simple" xlink:actuate="onLoad" xlink:show="embed"/></g><g fill="#5E48E8"><use x="98.48" y="136.572" xmlns:xlink="http://www.w3.org/1999/xlink" xlink:href="#m" xlink:type="simple" xlink:actuate="onLoad" xlink:show="embed"/></g><g fill="#5E48E8"><use x="135.656" y="136.572" xmlns:xlink="http://www.w3.org/1999/xlink" xlink:href="#m" xlink:type="simple" xlink:actuate="onLoad" xlink:show="embed"/></g><g fill="#5E48E8"><use x="172.833" y="136.572" xmlns:xlink="http://www.w3.org/1999/xlink" xlink:href="#n" xlink:type="simple" xlink:actuate="onLoad" xlink:show="embed"/></g><g fill="#5E48E8"><use x="219.245" y="136.572" xmlns:xlink="http://www.w3.org/1999/xlink" xlink:href="#m" xlink:type="simple" xlink:actuate="onLoad" xlink:show="embed"/></g><g fill="#5E48E8"><use x="256.413" y="136.572" xmlns:xlink="http://www.w3.org/1999/xlink" xlink:href="#o" xlink:type="simple" xlink:actuate="onLoad" xlink:show="embed"/></g><g clip-path="url(#p)"><g clip-path="url(#q)"><g clip-path="url(#r)"><g clip-path="url(#s)"><path fill="#FBB03B" d="M 631.695312 -28.480469 C 642.578125 -31.195312 652.605469 -32.464844 661.769531 -32.289062 C 680.605469 -31.917969 695.847656 -25.398438 707.0625 -12.886719 C 716.007812 -2.929688 722.398438 10.828125 726.03125 27.941406 C 729.136719 42.589844 730.195312 59.308594 729.171875 77.636719 C 727.253906 111.769531 718.617188 142.035156 711.464844 153.171875 C 702.167969 167.65625 688.5 174.910156 673.953125 173.074219 C 655.101562 170.691406 638.390625 154.121094 630.347656 129.847656 C 620.824219 101.136719 606.753906 95.289062 587.257812 87.21875 C 576.058594 82.578125 563.371094 77.316406 548.519531 66.800781 C 540 60.765625 535.820312 53.515625 536.101562 45.242188 C 536.476562 34.164062 544.632812 21.5 560.351562 7.597656 C 567.71875 1.132812 575.539062 -4.71875 583.816406 -9.960938 L 583.855469 -9.96875 C 601.203125 -18.6875 617.199219 -24.863281 631.695312 -28.480469 Z M 686.410156 171.453125 C 695.808594 169.105469 704.292969 162.644531 710.6875 152.6875 C 717.777344 141.640625 726.339844 111.570312 728.246094 77.585938 C 729.546875 54.550781 728.417969 12.265625 706.382812 -12.285156 C 695.339844 -24.585938 680.324219 -31.007812 661.753906 -31.382812 C 640.578125 -31.800781 614.527344 -24.324219 584.292969 -9.21875 C 583.226562 -8.566406 537.886719 19.550781 536.996094 45.230469 C 536.726562 53.175781 540.773438 60.167969 549.023438 66.007812 C 563.796875 76.464844 576.4375 81.710938 587.605469 86.328125 C 607.332031 94.507812 621.578125 100.417969 631.222656 129.527344 C 639.15625 153.484375 655.574219 169.816406 674.082031 172.167969 C 678.234375 172.703125 682.34375 172.464844 686.410156 171.453125 Z M 686.410156 171.453125"/></g></g></g></g><g fill="#5E48E8"><use x="188.154" y="547.755" xmlns:xlink="http://www.w3.org/1999/xlink" xlink:href="#t" xlink:type="simple" xlink:actuate="onLoad" xlink:show="embed"/></g><g fill="#5E48E8"><use x="205.908" y="547.755" xmlns:xlink="http://www.w3.org/1999/xlink" xlink:href="#u" xlink:type="simple" xlink:actuate="onLoad" xlink:show="embed"/></g><g fill="#5E48E8"><use x="219.056" y="547.755" xmlns:xlink="http://www.w3.org/1999/xlink" xlink:href="#v" xlink:type="simple" xlink:actuate="onLoad" xlink:show="embed"/></g><g fill="#5E48E8"><use x="230.178" y="547.755" xmlns:xlink="http://www.w3.org/1999/xlink" xlink:href="#w" xlink:type="simple" xlink:actuate="onLoad" xlink:show="embed"/></g><g fill="#5E48E8"><use x="241.299" y="547.755" xmlns:xlink="http://www.w3.org/1999/xlink" xlink:href="#x" xlink:type="simple" xlink:actuate="onLoad" xlink:show="embed"/></g><g fill="#5E48E8"><use x="251.425" y="547.755" xmlns:xlink="http://www.w3.org/1999/xlink" xlink:href="#y" xlink:type="simple" xlink:actuate="onLoad" xlink:show="embed"/></g><g fill="#5E48E8"><use x="258.511" y="547.755" xmlns:xlink="http://www.w3.org/1999/xlink" xlink:href="#z" xlink:type="simple" xlink:actuate="onLoad" xlink:show="embed"/></g><g fill="#5E48E8"><use x="263.569" y="547.755" xmlns:xlink="http://www.w3.org/1999/xlink" xlink:href="#A" xlink:type="simple" xlink:actuate="onLoad" xlink:show="embed"/></g><g fill="#5E48E8"><use x="274.691" y="547.755" xmlns:xlink="http://www.w3.org/1999/xlink" xlink:href="#B" xlink:type="simple" xlink:actuate="onLoad" xlink:show="embed"/></g><g fill="#5E48E8"><use x="285.813" y="547.755" xmlns:xlink="http://www.w3.org/1999/xlink" xlink:href="#C" xlink:type="simple" xlink:actuate="onLoad" xlink:show="embed"/></g><g fill="#5E48E8"><use x="291.876" y="547.755" xmlns:xlink="http://www.w3.org/1999/xlink" xlink:href="#D" xlink:type="simple" xlink:actuate="onLoad" xlink:show="embed"/></g><g fill="#5E48E8"><use x="296.934" y="547.755" xmlns:xlink="http://www.w3.org/1999/xlink" xlink:href="#E" xlink:type="simple" xlink:actuate="onLoad" xlink:show="embed"/></g><g fill="#5E48E8"><use x="308.056" y="547.755" xmlns:xlink="http://www.w3.org/1999/xlink" xlink:href="#F" xlink:type="simple" xlink:actuate="onLoad" xlink:show="embed"/></g><g fill="#5E48E8"><use x="318.182" y="547.755" xmlns:xlink="http://www.w3.org/1999/xlink" xlink:href="#G" xlink:type="simple" xlink:actuate="onLoad" xlink:show="embed"/></g><g fill="#5E48E8"><use x="328.308" y="547.755" xmlns:xlink="http://www.w3.org/1999/xlink" xlink:href="#H" xlink:type="simple" xlink:actuate="onLoad" xlink:show="embed"/></g><g fill="#5E48E8"><use x="344.497" y="547.755" xmlns:xlink="http://www.w3.org/1999/xlink" xlink:href="#I" xlink:type="simple" xlink:actuate="onLoad" xlink:show="embed"/></g><g fill="#5E48E8"><use x="354.623" y="547.755" xmlns:xlink="http://www.w3.org/1999/xlink" xlink:href="#J" xlink:type="simple" xlink:actuate="onLoad" xlink:show="embed"/></g><g fill="#5E48E8"><use x="364.748" y="547.755" xmlns:xlink="http://www.w3.org/1999/xlink" xlink:href="#D" xlink:type="simple" xlink:actuate="onLoad" xlink:show="embed"/></g><g fill="#5E48E8"><use x="369.807" y="547.755" xmlns:xlink="http://www.w3.org/1999/xlink" xlink:href="#u" xlink:type="simple" xlink:actuate="onLoad" xlink:show="embed"/></g><g fill="#5E48E8"><use x="382.956" y="547.755" xmlns:xlink="http://www.w3.org/1999/xlink" xlink:href="#v" xlink:type="simple" xlink:actuate="onLoad" xlink:show="embed"/></g><g fill="#5E48E8"><use x="394.077" y="547.755" xmlns:xlink="http://www.w3.org/1999/xlink" xlink:href="#K" xlink:type="simple" xlink:actuate="onLoad" xlink:show="embed"/></g><g fill="#5E48E8"><use x="405.199" y="547.755" xmlns:xlink="http://www.w3.org/1999/xlink" xlink:href="#D" xlink:type="simple" xlink:actuate="onLoad" xlink:show="embed"/></g><g fill="#5E48E8"><use x="410.257" y="547.755" xmlns:xlink="http://www.w3.org/1999/xlink" xlink:href="#L" xlink:type="simple" xlink:actuate="onLoad" xlink:show="embed"/></g><g fill="#5E48E8"><use x="422.401" y="547.755" xmlns:xlink="http://www.w3.org/1999/xlink" xlink:href="#M" xlink:type="simple" xlink:actuate="onLoad" xlink:show="embed"/></g><g fill="#5E48E8"><use x="427.46" y="547.755" xmlns:xlink="http://www.w3.org/1999/xlink" xlink:href="#D" xlink:type="simple" xlink:actuate="onLoad" xlink:show="embed"/></g><g fill="#5E48E8"><use x="432.518" y="547.755" xmlns:xlink="http://www.w3.org/1999/xlink" xlink:href="#N" xlink:type="simple" xlink:actuate="onLoad" xlink:show="embed"/></g><g fill="#5E48E8"><use x="445.667" y="547.755" xmlns:xlink="http://www.w3.org/1999/xlink" xlink:href="#M" xlink:type="simple" xlink:actuate="onLoad" xlink:show="embed"/></g><g fill="#5E48E8"><use x="450.725" y="547.755" xmlns:xlink="http://www.w3.org/1999/xlink" xlink:href="#H" xlink:type="simple" xlink:actuate="onLoad" xlink:show="embed"/></g><g fill="#5E48E8"><use x="466.914" y="547.755" xmlns:xlink="http://www.w3.org/1999/xlink" xlink:href="#G" xlink:type="simple" xlink:actuate="onLoad" xlink:show="embed"/></g><g fill="#5E48E8"><use x="477.04" y="547.755" xmlns:xlink="http://www.w3.org/1999/xlink" xlink:href="#O" xlink:type="simple" xlink:actuate="onLoad" xlink:show="embed"/></g><g fill="#5E48E8"><use x="482.099" y="547.755" xmlns:xlink="http://www.w3.org/1999/xlink" xlink:href="#D" xlink:type="simple" xlink:actuate="onLoad" xlink:show="embed"/></g><g fill="#5E48E8"><use x="487.157" y="547.755" xmlns:xlink="http://www.w3.org/1999/xlink" xlink:href="#N" xlink:type="simple" xlink:actuate="onLoad" xlink:show="embed"/></g><g fill="#5E48E8"><use x="500.306" y="547.755" xmlns:xlink="http://www.w3.org/1999/xlink" xlink:href="#M" xlink:type="simple" xlink:actuate="onLoad" xlink:show="embed"/></g><g fill="#5E48E8"><use x="505.365" y="547.755" xmlns:xlink="http://www.w3.org/1999/xlink" xlink:href="#M" xlink:type="simple" xlink:actuate="onLoad" xlink:show="embed"/></g><g fill="#5E48E8"><use x="510.423" y="547.755" xmlns:xlink="http://www.w3.org/1999/xlink" xlink:href="#D" xlink:type="simple" xlink:actuate="onLoad" xlink:show="embed"/></g><g fill="#5E48E8"><use x="515.482" y="547.755" xmlns:xlink="http://www.w3.org/1999/xlink" xlink:href="#P" xlink:type="simple" xlink:actuate="onLoad" xlink:show="embed"/></g><g fill="#5E48E8"><use x="528.63" y="547.755" xmlns:xlink="http://www.w3.org/1999/xlink" xlink:href="#z" xlink:type="simple" xlink:actuate="onLoad" xlink:show="embed"/></g><g fill="#5E48E8"><use x="533.689" y="547.755" xmlns:xlink="http://www.w3.org/1999/xlink" xlink:href="#A" xlink:type="simple" xlink:actuate="onLoad" xlink:show="embed"/></g><g fill="#5E48E8"><use x="544.81" y="547.755" xmlns:xlink="http://www.w3.org/1999/xlink" xlink:href="#B" xlink:type="simple" xlink:actuate="onLoad" xlink:show="embed"/></g><g fill="#5E48E8"><use x="555.932" y="547.755" xmlns:xlink="http://www.w3.org/1999/xlink" xlink:href="#C" xlink:type="simple" xlink:actuate="onLoad" xlink:show="embed"/></g><g fill="#5E48E8"><use x="561.995" y="547.755" xmlns:xlink="http://www.w3.org/1999/xlink" xlink:href="#Q" xlink:type="simple" xlink:actuate="onLoad" xlink:show="embed"/></g><g fill="#5E48E8"><use x="572.121" y="547.755" xmlns:xlink="http://www.w3.org/1999/xlink" xlink:href="#D" xlink:type="simple" xlink:actuate="onLoad" xlink:show="embed"/></g><g fill="#5E48E8"><use x="577.179" y="547.755" xmlns:xlink="http://www.w3.org/1999/xlink" xlink:href="#P" xlink:type="simple" xlink:actuate="onLoad" xlink:show="embed"/></g><g fill="#5E48E8"><use x="590.328" y="547.755" xmlns:xlink="http://www.w3.org/1999/xlink" xlink:href="#F" xlink:type="simple" xlink:actuate="onLoad" xlink:show="embed"/></g><g fill="#5E48E8"><use x="600.454" y="547.755" xmlns:xlink="http://www.w3.org/1999/xlink" xlink:href="#Q" xlink:type="simple" xlink:actuate="onLoad" xlink:show="embed"/></g><g fill="#5E48E8"><use x="610.58" y="547.755" xmlns:xlink="http://www.w3.org/1999/xlink" xlink:href="#F" xlink:type="simple" xlink:actuate="onLoad" xlink:show="embed"/></g><g fill="#5E48E8"><use x="620.706" y="547.755" xmlns:xlink="http://www.w3.org/1999/xlink" xlink:href="#y" xlink:type="simple" xlink:actuate="onLoad" xlink:show="embed"/></g><g fill="#5E48E8"><use x="627.791" y="547.755" xmlns:xlink="http://www.w3.org/1999/xlink" xlink:href="#R" xlink:type="simple" xlink:actuate="onLoad" xlink:show="embed"/></g><g fill="#5E48E8"><use x="637.917" y="547.755" xmlns:xlink="http://www.w3.org/1999/xlink" xlink:href="#F" xlink:type="simple" xlink:actuate="onLoad" xlink:show="embed"/></g><g fill="#5E48E8"><use x="648.043" y="547.755" xmlns:xlink="http://www.w3.org/1999/xlink" xlink:href="#S" xlink:type="simple" xlink:actuate="onLoad" xlink:show="embed"/></g><g fill="#5E48E8"><use x="423.66" y="572.884" xmlns:xlink="http://www.w3.org/1999/xlink" xlink:href="#T" xlink:type="simple" xlink:actuate="onLoad" xlink:show="embed"/></g><path fill="#5E48E8" d="M 73.054688 164.71875 C 73.054688 165.15625 73.011719 165.589844 72.925781 166.015625 C 72.839844 166.445312 72.710938 166.863281 72.542969 167.265625 C 72.375 167.667969 72.167969 168.050781 71.921875 168.414062 C 71.675781 168.777344 71.394531 169.113281 71.082031 169.421875 C 70.769531 169.730469 70.429688 170.007812 70.0625 170.25 C 69.695312 170.492188 69.308594 170.699219 68.902344 170.867188 C 68.492188 171.03125 68.070312 171.160156 67.636719 171.242188 C 67.203125 171.328125 66.765625 171.371094 66.324219 171.371094 C 65.882812 171.371094 65.445312 171.328125 65.011719 171.242188 C 64.578125 171.160156 64.15625 171.03125 63.75 170.867188 C 63.339844 170.699219 62.953125 170.492188 62.585938 170.25 C 62.21875 170.007812 61.878906 169.730469 61.566406 169.421875 C 61.253906 169.113281 60.976562 168.777344 60.730469 168.414062 C 60.484375 168.050781 60.277344 167.667969 60.109375 167.265625 C 59.9375 166.863281 59.8125 166.445312 59.726562 166.015625 C 59.640625 165.589844 59.59375 165.15625 59.59375 164.71875 C 59.59375 164.28125 59.640625 163.851562 59.726562 163.421875 C 59.8125 162.992188 59.9375 162.578125 60.109375 162.175781 C 60.277344 161.769531 60.484375 161.386719 60.730469 161.023438 C 60.976562 160.660156 61.253906 160.324219 61.566406 160.015625 C 61.878906 159.707031 62.21875 159.429688 62.585938 159.1875 C 62.953125 158.945312 63.339844 158.742188 63.75 158.574219 C 64.15625 158.40625 64.578125 158.28125 65.011719 158.195312 C 65.445312 158.109375 65.882812 158.066406 66.324219 158.066406 C 66.765625 158.066406 67.203125 158.109375 67.636719 158.195312 C 68.070312 158.28125 68.492188 158.40625 68.902344 158.574219 C 69.308594 158.742188 69.695312 158.945312 70.0625 159.1875 C 70.429688 159.429688 70.769531 159.707031 71.082031 160.015625 C 71.394531 160.324219 71.675781 160.660156 71.921875 161.023438 C 72.167969 161.386719 72.375 161.769531 72.542969 162.175781 C 72.710938 162.578125 72.839844 162.992188 72.925781 163.421875 C 73.011719 163.851562 73.054688 164.28125 73.054688 164.71875 Z M 99.972656 164.71875 C 99.972656 165.15625 99.929688 165.589844 99.84375 166.015625 C 99.757812 166.445312 99.628906 166.863281 99.460938 167.265625 C 99.292969 167.667969 99.085938 168.050781 98.839844 168.414062 C 98.59375 168.777344 98.316406 169.113281 98.003906 169.421875 C 97.691406 169.730469 97.351562 170.007812 96.984375 170.25 C 96.613281 170.492188 96.226562 170.699219 95.820312 170.867188 C 95.410156 171.03125 94.988281 171.160156 94.558594 171.242188 C 94.125 171.328125 93.6875 171.371094 93.242188 171.371094 C 92.800781 171.371094 92.363281 171.328125 91.929688 171.242188 C 91.496094 171.160156 91.078125 171.03125 90.667969 170.867188 C 90.261719 170.699219 89.871094 170.492188 89.503906 170.25 C 89.136719 170.007812 88.796875 169.730469 88.484375 169.421875 C 88.171875 169.113281 87.894531 168.777344 87.648438 168.414062 C 87.402344 168.050781 87.195312 167.667969 87.027344 167.265625 C 86.855469 166.863281 86.730469 166.445312 86.644531 166.015625 C 86.558594 165.589844 86.515625 165.15625 86.515625 164.71875 C 86.515625 164.28125 86.558594 163.851562 86.644531 163.421875 C 86.730469 162.992188 86.855469 162.578125 87.027344 162.175781 C 87.195312 161.769531 87.402344 161.386719 87.648438 161.023438 C 87.894531 160.660156 88.171875 160.324219 88.484375 160.015625 C 88.796875 159.707031 89.136719 159.429688 89.503906 159.1875 C 89.871094 158.945312 90.261719 158.742188 90.667969 158.574219 C 91.078125 158.40625 91.496094 158.28125 91.929688 158.195312 C 92.363281 158.109375 92.800781 158.066406 93.242188 158.066406 C 93.6875 158.066406 94.125 158.109375 94.558594 158.195312 C 94.988281 158.28125 95.410156 158.40625 95.820312 158.574219 C 96.226562 158.742188 96.613281 158.945312 96.984375 159.1875 C 97.351562 159.429688 97.691406 159.707031 98.003906 160.015625 C 98.316406 160.324219 98.59375 160.660156 98.839844 161.023438 C 99.085938 161.386719 99.292969 161.769531 99.460938 162.175781 C 99.628906 162.578125 99.757812 162.992188 99.84375 163.421875 C 99.929688 163.851562 99.972656 164.28125 99.972656 164.71875 Z M 126.890625 164.71875 C 126.890625 165.15625 126.847656 165.589844 126.761719 166.015625 C 126.675781 166.445312 126.550781 166.863281 126.378906 167.265625 C 126.210938 167.667969 126.003906 168.050781 125.757812 168.414062 C 125.511719 168.777344 125.234375 169.113281 124.921875 169.421875 C 124.609375 169.730469 124.269531 170.007812 123.902344 170.25 C 123.535156 170.492188 123.144531 170.699219 122.738281 170.867188 C 122.328125 171.03125 121.910156 171.160156 121.476562 171.242188 C 121.042969 171.328125 120.605469 171.371094 120.164062 171.371094 C 119.71875 171.371094 119.28125 171.328125 118.847656 171.242188 C 118.417969 171.160156 117.996094 171.03125 117.585938 170.867188 C 117.179688 170.699219 116.789062 170.492188 116.421875 170.25 C 116.054688 170.007812 115.714844 169.730469 115.402344 169.421875 C 115.089844 169.113281 114.8125 168.777344 114.566406 168.414062 C 114.320312 168.050781 114.113281 167.667969 113.945312 167.265625 C 113.777344 166.863281 113.648438 166.445312 113.5625 166.015625 C 113.476562 165.589844 113.433594 165.15625 113.433594 164.71875 C 113.433594 164.28125 113.476562 163.851562 113.5625 163.421875 C 113.648438 162.992188 113.777344 162.578125 113.945312 162.175781 C 114.113281 161.769531 114.320312 161.386719 114.566406 161.023438 C 114.8125 160.660156 115.089844 160.324219 115.402344 160.015625 C 115.714844 159.707031 116.054688 159.429688 116.421875 159.1875 C 116.789062 158.945312 117.179688 158.742188 117.585938 158.574219 C 117.996094 158.40625 118.417969 158.28125 118.847656 158.195312 C 119.28125 158.109375 119.71875 158.066406 120.164062 158.066406 C 120.605469 158.066406 121.042969 158.109375 121.476562 158.195312 C 121.910156 158.28125 122.328125 158.40625 122.738281 158.574219 C 123.144531 158.742188 123.535156 158.945312 123.902344 159.1875 C 124.269531 159.429688 124.609375 159.707031 124.921875 160.015625 C 125.234375 160.324219 125.511719 160.660156 125.757812 161.023438 C 126.003906 161.386719 126.210938 161.769531 126.378906 162.175781 C 126.550781 162.578125 126.675781 162.992188 126.761719 163.421875 C 126.847656 163.851562 126.890625 164.28125 126.890625 164.71875 Z M 153.8125 164.71875 C 153.8125 165.15625 153.765625 165.589844 153.679688 166.015625 C 153.59375 166.445312 153.46875 166.863281 153.296875 167.265625 C 153.128906 167.667969 152.921875 168.050781 152.675781 168.414062 C 152.429688 168.777344 152.152344 169.113281 151.839844 169.421875 C 151.527344 169.730469 151.1875 170.007812 150.820312 170.25 C 150.453125 170.492188 150.066406 170.699219 149.65625 170.867188 C 149.246094 171.03125 148.828125 171.160156 148.394531 171.242188 C 147.960938 171.328125 147.523438 171.371094 147.082031 171.371094 C 146.640625 171.371094 146.203125 171.328125 145.769531 171.242188 C 145.335938 171.160156 144.914062 171.03125 144.503906 170.867188 C 144.097656 170.699219 143.710938 170.492188 143.34375 170.25 C 142.976562 170.007812 142.636719 169.730469 142.324219 169.421875 C 142.011719 169.113281 141.730469 168.777344 141.484375 168.414062 C 141.238281 168.050781 141.03125 167.667969 140.863281 167.265625 C 140.695312 166.863281 140.566406 166.445312 140.480469 166.015625 C 140.394531 165.589844 140.351562 165.15625 140.351562 164.71875 C 140.351562 164.28125 140.394531 163.851562 140.480469 163.421875 C 140.566406 162.992188 140.695312 162.578125 140.863281 162.175781 C 141.03125 161.769531 141.238281 161.386719 141.484375 161.023438 C 141.730469 160.660156 142.011719 160.324219 142.324219 160.015625 C 142.636719 159.707031 142.976562 159.429688 143.34375 159.1875 C 143.710938 158.945312 144.097656 158.742188 144.503906 158.574219 C 144.914062 158.40625 145.335938 158.28125 145.769531 158.195312 C 146.203125 158.109375 146.640625 158.066406 147.082031 158.066406 C 147.523438 158.066406 147.960938 158.109375 148.394531 158.195312 C 148.828125 158.28125 149.246094 158.40625 149.65625 158.574219 C 150.066406 158.742188 150.453125 158.945312 150.820312 159.1875 C 151.1875 159.429688 151.527344 159.707031 151.839844 160.015625 C 152.152344 160.324219 152.429688 160.660156 152.675781 161.023438 C 152.921875 161.386719 153.128906 161.769531 153.296875 162.175781 C 153.46875 162.578125 153.59375 162.992188 153.679688 163.421875 C 153.765625 163.851562 153.8125 164.28125 153.8125 164.71875 Z M 180.730469 164.71875 C 180.730469 165.15625 180.6875 165.589844 180.601562 166.015625 C 180.511719 166.445312 180.386719 166.863281 180.21875 167.265625 C 180.046875 167.667969 179.839844 168.050781 179.59375 168.414062 C 179.347656 168.777344 179.070312 169.113281 178.757812 169.421875 C 178.445312 169.730469 178.105469 170.007812 177.738281 170.25 C 177.371094 170.492188 176.984375 170.699219 176.574219 170.867188 C 176.167969 171.03125 175.746094 171.160156 175.3125 171.242188 C 174.878906 171.328125 174.441406 171.371094 174 171.371094 C 173.558594 171.371094 173.121094 171.328125 172.6875 171.242188 C 172.253906 171.160156 171.832031 171.03125 171.425781 170.867188 C 171.015625 170.699219 170.628906 170.492188 170.261719 170.25 C 169.894531 170.007812 169.554688 169.730469 169.242188 169.421875 C 168.929688 169.113281 168.648438 168.777344 168.402344 168.414062 C 168.160156 168.050781 167.953125 167.667969 167.78125 167.265625 C 167.613281 166.863281 167.484375 166.445312 167.398438 166.015625 C 167.3125 165.589844 167.269531 165.15625 167.269531 164.71875 C 167.269531 164.28125 167.3125 163.851562 167.398438 163.421875 C 167.484375 162.992188 167.613281 162.578125 167.78125 162.175781 C 167.953125 161.769531 168.160156 161.386719 168.402344 161.023438 C 168.648438 160.660156 168.929688 160.324219 169.242188 160.015625 C 169.554688 159.707031 169.894531 159.429688 170.261719 159.1875 C 170.628906 158.945312 171.015625 158.742188 171.425781 158.574219 C 171.832031 158.40625 172.253906 158.28125 172.6875 158.195312 C 173.121094 158.109375 173.558594 158.066406 174 158.066406 C 174.441406 158.066406 174.878906 158.109375 175.3125 158.195312 C 175.746094 158.28125 176.167969 158.40625 176.574219 158.574219 C 176.984375 158.742188 177.371094 158.945312 177.738281 159.1875 C 178.105469 159.429688 178.445312 159.707031 178.757812 160.015625 C 179.070312 160.324219 179.347656 160.660156 179.59375 161.023438 C 179.839844 161.386719 180.046875 161.769531 180.21875 162.175781 C 180.386719 162.578125 180.511719 162.992188 180.601562 163.421875 C 180.6875 163.851562 180.730469 164.28125 180.730469 164.71875 Z M 207.648438 164.71875 C 207.648438 165.15625 207.605469 165.589844 207.519531 166.015625 C 207.433594 166.445312 207.304688 166.863281 207.136719 167.265625 C 206.964844 167.667969 206.757812 168.050781 206.511719 168.414062 C 206.269531 168.777344 205.988281 169.113281 205.675781 169.421875 C 205.363281 169.730469 205.023438 170.007812 204.65625 170.25 C 204.289062 170.492188 203.902344 170.699219 203.492188 170.867188 C 203.085938 171.03125 202.664062 171.160156 202.230469 171.242188 C 201.796875 171.328125 201.359375 171.371094 200.917969 171.371094 C 200.476562 171.371094 200.039062 171.328125 199.605469 171.242188 C 199.171875 171.160156 198.75 171.03125 198.34375 170.867188 C 197.933594 170.699219 197.546875 170.492188 197.179688 170.25 C 196.8125 170.007812 196.472656 169.730469 196.160156 169.421875 C 195.847656 169.113281 195.566406 168.777344 195.324219 168.414062 C 195.078125 168.050781 194.871094 167.667969 194.699219 167.265625 C 194.53125 166.863281 194.402344 166.445312 194.316406 166.015625 C 194.230469 165.589844 194.1875 165.15625 194.1875 164.71875 C 194.1875 164.28125 194.230469 163.851562 194.316406 163.421875 C 194.402344 162.992188 194.53125 162.578125 194.699219 162.175781 C 194.871094 161.769531 195.078125 161.386719 195.324219 161.023438 C 195.566406 160.660156 195.847656 160.324219 196.160156 160.015625 C 196.472656 159.707031 196.8125 159.429688 197.179688 159.1875 C 197.546875 158.945312 197.933594 158.742188 198.34375 158.574219 C 198.75 158.40625 199.171875 158.28125 199.605469 158.195312 C 200.039062 158.109375 200.476562 158.066406 200.917969 158.066406 C 201.359375 158.066406 201.796875 158.109375 202.230469 158.195312 C 202.664062 158.28125 203.085938 158.40625 203.492188 158.574219 C 203.902344 158.742188 204.289062 158.945312 204.65625 159.1875 C 205.023438 159.429688 205.363281 159.707031 205.675781 160.015625 C 205.988281 160.324219 206.269531 160.660156 206.511719 161.023438 C 206.757812 161.386719 206.964844 161.769531 207.136719 162.175781 C 207.304688 162.578125 207.433594 162.992188 207.519531 163.421875 C 207.605469 163.851562 207.648438 164.28125 207.648438 164.71875 Z M 234.566406 164.71875 C 234.566406 165.15625 234.523438 165.589844 234.4375 166.015625 C 234.351562 166.445312 234.222656 166.863281 234.054688 167.265625 C 233.886719 167.667969 233.675781 168.050781 233.433594 168.414062 C 233.1875 168.777344 232.90625 169.113281 232.59375 169.421875 C 232.28125 169.730469 231.941406 170.007812 231.574219 170.25 C 231.207031 170.492188 230.820312 170.699219 230.410156 170.867188 C 230.003906 171.03125 229.582031 171.160156 229.148438 171.242188 C 228.714844 171.328125 228.277344 171.371094 227.835938 171.371094 C 227.394531 171.371094 226.957031 171.328125 226.523438 171.242188 C 226.089844 171.160156 225.667969 171.03125 225.261719 170.867188 C 224.851562 170.699219 224.464844 170.492188 224.097656 170.25 C 223.730469 170.007812 223.390625 169.730469 223.078125 169.421875 C 222.765625 169.113281 222.488281 168.777344 222.242188 168.414062 C 221.996094 168.050781 221.789062 167.667969 221.621094 167.265625 C 221.449219 166.863281 221.324219 166.445312 221.234375 166.015625 C 221.148438 165.589844 221.105469 165.15625 221.105469 164.71875 C 221.105469 164.28125 221.148438 163.851562 221.234375 163.421875 C 221.324219 162.992188 221.449219 162.578125 221.621094 162.175781 C 221.789062 161.769531 221.996094 161.386719 222.242188 161.023438 C 222.488281 160.660156 222.765625 160.324219 223.078125 160.015625 C 223.390625 159.707031 223.730469 159.429688 224.097656 159.1875 C 224.464844 158.945312 224.851562 158.742188 225.261719 158.574219 C 225.667969 158.40625 226.089844 158.28125 226.523438 158.195312 C 226.957031 158.109375 227.394531 158.066406 227.835938 158.066406 C 228.277344 158.066406 228.714844 158.109375 229.148438 158.195312 C 229.582031 158.28125 230.003906 158.40625 230.410156 158.574219 C 230.820312 158.742188 231.207031 158.945312 231.574219 159.1875 C 231.941406 159.429688 232.28125 159.707031 232.59375 160.015625 C 232.90625 160.324219 233.1875 160.660156 233.433594 161.023438 C 233.675781 161.386719 233.886719 161.769531 234.054688 162.175781 C 234.222656 162.578125 234.351562 162.992188 234.4375 163.421875 C 234.523438 163.851562 234.566406 164.28125 234.566406 164.71875 Z M 261.484375 164.71875 C 261.484375 165.15625 261.441406 165.589844 261.355469 166.015625 C 261.269531 166.445312 261.140625 166.863281 260.972656 167.265625 C 260.804688 167.667969 260.597656 168.050781 260.351562 168.414062 C 260.105469 168.777344 259.828125 169.113281 259.515625 169.421875 C 259.203125 169.730469 258.863281 170.007812 258.492188 170.25 C 258.125 170.492188 257.738281 170.699219 257.332031 170.867188 C 256.921875 171.03125 256.5 171.160156 256.066406 171.242188 C 255.632812 171.328125 255.195312 171.371094 254.753906 171.371094 C 254.3125 171.371094 253.875 171.328125 253.441406 171.242188 C 253.007812 171.160156 252.589844 171.03125 252.179688 170.867188 C 251.773438 170.699219 251.382812 170.492188 251.015625 170.25 C 250.648438 170.007812 250.308594 169.730469 249.996094 169.421875 C 249.683594 169.113281 249.40625 168.777344 249.160156 168.414062 C 248.914062 168.050781 248.707031 167.667969 248.539062 167.265625 C 248.367188 166.863281 248.242188 166.445312 248.15625 166.015625 C 248.070312 165.589844 248.027344 165.15625 248.027344 164.71875 C 248.027344 164.28125 248.070312 163.851562 248.15625 163.421875 C 248.242188 162.992188 248.367188 162.578125 248.539062 162.175781 C 248.707031 161.769531 248.914062 161.386719 249.160156 161.023438 C 249.40625 160.660156 249.683594 160.324219 249.996094 160.015625 C 250.308594 159.707031 250.648438 159.429688 251.015625 159.1875 C 251.382812 158.945312 251.773438 158.742188 252.179688 158.574219 C 252.589844 158.40625 253.007812 158.28125 253.441406 158.195312 C 253.875 158.109375 254.3125 158.066406 254.753906 158.066406 C 255.195312 158.066406 255.632812 158.109375 256.066406 158.195312 C 256.5 158.28125 256.921875 158.40625 257.332031 158.574219 C 257.738281 158.742188 258.125 158.945312 258.492188 159.1875 C 258.863281 159.429688 259.203125 159.707031 259.515625 160.015625 C 259.828125 160.324219 260.105469 160.660156 260.351562 161.023438 C 260.597656 161.386719 260.804688 161.769531 260.972656 162.175781 C 261.140625 162.578125 261.269531 162.992188 261.355469 163.421875 C 261.441406 163.851562 261.484375 164.28125 261.484375 164.71875 Z M 288.402344 164.71875 C 288.402344 165.15625 288.359375 165.589844 288.273438 166.015625 C 288.1875 166.445312 288.058594 166.863281 287.890625 167.265625 C 287.722656 167.667969 287.515625 168.050781 287.269531 168.414062 C 287.023438 168.777344 286.746094 169.113281 286.433594 169.421875 C 286.121094 169.730469 285.78125 170.007812 285.414062 170.25 C 285.046875 170.492188 284.65625 170.699219 284.25 170.867188 C 283.839844 171.03125 283.421875 171.160156 282.988281 171.242188 C 282.554688 171.328125 282.117188 171.371094 281.671875 171.371094 C 281.230469 171.371094 280.792969 171.328125 280.359375 171.242188 C 279.925781 171.160156 279.507812 171.03125 279.097656 170.867188 C 278.691406 170.699219 278.300781 170.492188 277.933594 170.25 C 277.566406 170.007812 277.226562 169.730469 276.914062 169.421875 C 276.601562 169.113281 276.324219 168.777344 276.078125 168.414062 C 275.832031 168.050781 275.625 167.667969 275.457031 167.265625 C 275.289062 166.863281 275.160156 166.445312 275.074219 166.015625 C 274.988281 165.589844 274.945312 165.15625 274.945312 164.71875 C 274.945312 164.28125 274.988281 163.851562 275.074219 163.421875 C 275.160156 162.992188 275.289062 162.578125 275.457031 162.175781 C 275.625 161.769531 275.832031 161.386719 276.078125 161.023438 C 276.324219 160.660156 276.601562 160.324219 276.914062 160.015625 C 277.226562 159.707031 277.566406 159.429688 277.933594 159.1875 C 278.300781 158.945312 278.691406 158.742188 279.097656 158.574219 C 279.507812 158.40625 279.925781 158.28125 280.359375 158.195312 C 280.792969 158.109375 281.230469 158.066406 281.671875 158.066406 C 282.117188 158.066406 282.554688 158.109375 282.988281 158.195312 C 283.421875 158.28125 283.839844 158.40625 284.25 158.574219 C 284.65625 158.742188 285.046875 158.945312 285.414062 159.1875 C 285.78125 159.429688 286.121094 159.707031 286.433594 160.015625 C 286.746094 160.324219 287.023438 160.660156 287.269531 161.023438 C 287.515625 161.386719 287.722656 161.769531 287.890625 162.175781 C 288.058594 162.578125 288.1875 162.992188 288.273438 163.421875 C 288.359375 163.851562 288.402344 164.28125 288.402344 164.71875 Z M 315.320312 164.71875 C 315.320312 165.15625 315.277344 165.589844 315.191406 166.015625 C 315.105469 166.445312 314.980469 166.863281 314.808594 167.265625 C 314.640625 167.667969 314.433594 168.050781 314.1875 168.414062 C 313.941406 168.777344 313.664062 169.113281 313.351562 169.421875 C 313.039062 169.730469 312.699219 170.007812 312.332031 170.25 C 311.964844 170.492188 311.574219 170.699219 311.167969 170.867188 C 310.757812 171.03125 310.339844 171.160156 309.90625 171.242188 C 309.472656 171.328125 309.035156 171.371094 308.59375 171.371094 C 308.152344 171.371094 307.710938 171.328125 307.28125 171.242188 C 306.847656 171.160156 306.425781 171.03125 306.015625 170.867188 C 305.609375 170.699219 305.222656 170.492188 304.855469 170.25 C 304.484375 170.007812 304.144531 169.730469 303.832031 169.421875 C 303.519531 169.113281 303.242188 168.777344 302.996094 168.414062 C 302.75 168.050781 302.542969 167.667969 302.375 167.265625 C 302.207031 166.863281 302.078125 166.445312 301.992188 166.015625 C 301.90625 165.589844 301.863281 165.15625 301.863281 164.71875 C 301.863281 164.28125 301.90625 163.851562 301.992188 163.421875 C 302.078125 162.992188 302.207031 162.578125 302.375 162.175781 C 302.542969 161.769531 302.75 161.386719 302.996094 161.023438 C 303.242188 160.660156 303.519531 160.324219 303.832031 160.015625 C 304.144531 159.707031 304.484375 159.429688 304.855469 159.1875 C 305.222656 158.945312 305.609375 158.742188 306.015625 158.574219 C 306.425781 158.40625 306.847656 158.28125 307.28125 158.195312 C 307.710938 158.109375 308.152344 158.066406 308.59375 158.066406 C 309.035156 158.066406 309.472656 158.109375 309.90625 158.195312 C 310.339844 158.28125 310.757812 158.40625 311.167969 158.574219 C 311.574219 158.742188 311.964844 158.945312 312.332031 159.1875 C 312.699219 159.429688 313.039062 159.707031 313.351562 160.015625 C 313.664062 160.324219 313.941406 160.660156 314.1875 161.023438 C 314.433594 161.386719 314.640625 161.769531 314.808594 162.175781 C 314.980469 162.578125 315.105469 162.992188 315.191406 163.421875 C 315.277344 163.851562 315.320312 164.28125 315.320312 164.71875 Z M 315.320312 164.71875"/></svg>